<svg xmlns="http://www.w3.org/2000/svg" width="1600" height="1140" viewBox="0 0 1600 1140">
  <defs>
    <linearGradient id="bg" x1="0" x2="1" y1="0" y2="1">
      <stop offset="0" stop-color="#0b0f19"/>
      <stop offset="1" stop-color="#07101b"/>
    </linearGradient>
    <filter id="blur" x="-20%" y="-20%" width="140%" height="140%">
      <feGaussianBlur stdDeviation="18"/>
    </filter>
  </defs>

  <rect width="1600" height="1140" fill="url(#bg)"/>
  <circle cx="420" cy="240" r="250" fill="#f6c453" opacity="0.12" filter="url(#blur)"/>
  <circle cx="1240" cy="360" r="280" fill="#22d3ee" opacity="0.10" filter="url(#blur)"/>

  <rect x="120" y="90" width="1360" height="960" rx="34" fill="rgba(255,255,255,0.06)" stroke="rgba(255,255,255,0.10)"/>
  <rect x="150" y="130" width="1300" height="80" rx="20" fill="rgba(0,0,0,0.35)" stroke="rgba(255,255,255,0.10)"/>

  <text x="190" y="182" font-size="28" fill="rgba(255,255,255,0.90)" font-family="system-ui, -apple-system, Segoe UI, Roboto" font-weight="700">
    Waypoint
  </text>
  <text x="190" y="206" font-size="14" fill="rgba(255,255,255,0.55)" font-family="system-ui, -apple-system, Segoe UI, Roboto">
    People • Remember context and follow up
  </text>

  <rect x="980" y="150" width="430" height="44" rx="22" fill="rgba(255,255,255,0.06)" stroke="rgba(255,255,255,0.10)"/>
  <text x="1005" y="178" font-size="14" fill="rgba(255,255,255,0.55)" font-family="system-ui, -apple-system, Segoe UI, Roboto">
    Search people, city…
  </text>

  <!-- columns -->
  <rect x="150" y="235" width="650" height="790" rx="26" fill="rgba(0,0,0,0.28)" stroke="rgba(255,255,255,0.10)"/>
  <rect x="820" y="235" width="630" height="790" rx="26" fill="rgba(0,0,0,0.28)" stroke="rgba(255,255,255,0.10)"/>

  <!-- list -->
  <text x="180" y="285" font-size="16" fill="rgba(255,255,255,0.80)" font-family="system-ui, -apple-system, Segoe UI, Roboto" font-weight="700">
    Contacts
  </text>

  <g font-family="system-ui, -apple-system, Segoe UI, Roboto">
    <rect x="180" y="310" width="590" height="92" rx="18" fill="rgba(255,255,255,0.06)" stroke="rgba(255,255,255,0.09)"/>
    <circle cx="220" cy="356" r="22" fill="rgba(246,196,83,0.25)"/>
    <text x="260" y="348" font-size="14" fill="rgba(255,255,255,0.92)" font-weight="650">Marta G.</text>
    <text x="260" y="370" font-size="12" fill="rgba(255,255,255,0.55)">Met at cowork • Valencia • SEO</text>
    <rect x="650" y="336" width="100" height="22" rx="11" fill="rgba(34,211,238,0.18)"/>
    <text x="665" y="352" font-size="12" fill="rgba(34,211,238,0.95)">follow up</text>

    <rect x="180" y="414" width="590" height="92" rx="18" fill="rgba(255,255,255,0.05)" stroke="rgba(255,255,255,0.08)"/>
    <circle cx="220" cy="460" r="22" fill="rgba(34,211,238,0.25)"/>
    <text x="260" y="452" font-size="14" fill="rgba(255,255,255,0.92)" font-weight="650">Jon S.</text>
    <text x="260" y="474" font-size="12" fill="rgba(255,255,255,0.55)">Surf hostel • Las Palmas • Dev</text>
    <rect x="650" y="440" width="80" height="22" rx="11" fill="rgba(246,196,83,0.18)"/>
    <text x="665" y="456" font-size="12" fill="rgba(246,196,83,0.95)">intro</text>

    <rect x="180" y="518" width="590" height="92" rx="18" fill="rgba(255,255,255,0.05)" stroke="rgba(255,255,255,0.08)"/>
    <circle cx="220" cy="564" r="22" fill="rgba(255,255,255,0.14)"/>
    <text x="260" y="556" font-size="14" fill="rgba(255,255,255,0.92)" font-weight="650">Aisha K.</text>
    <text x="260" y="578" font-size="12" fill="rgba(255,255,255,0.55)">Creator meetup • Bilbao • Video</text>
    <rect x="650" y="544" width="110" height="22" rx="11" fill="rgba(34,211,238,0.18)"/>
    <text x="665" y="560" font-size="12" fill="rgba(34,211,238,0.95)">remind</text>
  </g>

  <!-- detail -->
  <text x="850" y="285" font-size="16" fill="rgba(255,255,255,0.80)" font-family="system-ui, -apple-system, Segoe UI, Roboto" font-weight="700">
    Contact
  </text>

  <rect x="850" y="310" width="570" height="200" rx="22" fill="rgba(255,255,255,0.06)" stroke="rgba(255,255,255,0.09)"/>
  <circle cx="910" cy="385" r="34" fill="rgba(246,196,83,0.22)"/>
  <text x="970" y="370" font-size="18" fill="rgba(255,255,255,0.92)" font-family="system-ui, -apple-system, Segoe UI, Roboto" font-weight="750">
    Marta G.
  </text>
  <text x="970" y="396" font-size="12" fill="rgba(255,255,255,0.55)" font-family="system-ui, -apple-system, Segoe UI, Roboto">
    Valencia • SEO consultant • Met at cowork
  </text>
  <rect x="970" y="420" width="220" height="12" rx="6" fill="rgba(255,255,255,0.12)"/>
  <rect x="970" y="442" width="360" height="12" rx="6" fill="rgba(255,255,255,0.10)"/>

  <rect x="850" y="530" width="570" height="220" rx="22" fill="rgba(255,255,255,0.05)" stroke="rgba(255,255,255,0.08)"/>
  <text x="880" y="575" font-size="14" fill="rgba(255,255,255,0.85)" font-family="system-ui, -apple-system, Segoe UI, Roboto" font-weight="650">
    Notes
  </text>
  <text x="880" y="603" font-size="12" fill="rgba(255,255,255,0.55)" font-family="system-ui, -apple-system, Segoe UI, Roboto">
    Interested in collab content about north Spain.
  </text>
  <text x="880" y="627" font-size="12" fill="rgba(255,255,255,0.55)" font-family="system-ui, -apple-system, Segoe UI, Roboto">
    Follow up: send itinerary + link to beta.
  </text>

  <rect x="850" y="770" width="570" height="90" rx="22" fill="rgba(255,255,255,0.05)" stroke="rgba(255,255,255,0.08)"/>
  <rect x="880" y="798" width="280" height="14" rx="7" fill="rgba(34,211,238,0.45)"/>
  <rect x="880" y="822" width="200" height="14" rx="7" fill="rgba(246,196,83,0.45)"/>
  <text x="880" y="855" font-size="12" fill="rgba(255,255,255,0.55)" font-family="system-ui, -apple-system, Segoe UI, Roboto">
    Next follow-up: in 7 days
  </text>
</svg>