<svg xmlns="http://www.w3.org/2000/svg" width="1600" height="1140" viewBox="0 0 1600 1140">
  <defs>
    <linearGradient id="bg" x1="0" x2="1" y1="0" y2="1">
      <stop offset="0" stop-color="#0b0f19"/>
      <stop offset="1" stop-color="#07101b"/>
    </linearGradient>
    <filter id="blur" x="-20%" y="-20%" width="140%" height="140%">
      <feGaussianBlur stdDeviation="18"/>
    </filter>
  </defs>

  <rect width="1600" height="1140" fill="url(#bg)"/>
  <circle cx="520" cy="220" r="260" fill="#22d3ee" opacity="0.12" filter="url(#blur)"/>
  <circle cx="1220" cy="320" r="240" fill="#f6c453" opacity="0.14" filter="url(#blur)"/>

  <rect x="120" y="90" width="1360" height="960" rx="34" fill="rgba(255,255,255,0.06)" stroke="rgba(255,255,255,0.10)"/>
  <rect x="150" y="130" width="1300" height="80" rx="20" fill="rgba(0,0,0,0.35)" stroke="rgba(255,255,255,0.10)"/>

  <text x="190" y="182" font-size="28" fill="rgba(255,255,255,0.90)" font-family="system-ui, -apple-system, Segoe UI, Roboto" font-weight="700">
    Waypoint
  </text>
  <text x="190" y="206" font-size="14" fill="rgba(255,255,255,0.55)" font-family="system-ui, -apple-system, Segoe UI, Roboto">
    Projects • Keep momentum while you move
  </text>

  <rect x="1030" y="150" width="380" height="44" rx="22" fill="rgba(255,255,255,0.06)" stroke="rgba(255,255,255,0.10)"/>
  <text x="1055" y="178" font-size="14" fill="rgba(255,255,255,0.55)" font-family="system-ui, -apple-system, Segoe UI, Roboto">
    Add task…
  </text>

  <!-- Kanban columns -->
  <g font-family="system-ui, -apple-system, Segoe UI, Roboto">
    <rect x="150" y="235" width="410" height="790" rx="26" fill="rgba(0,0,0,0.28)" stroke="rgba(255,255,255,0.10)"/>
    <rect x="595" y="235" width="410" height="790" rx="26" fill="rgba(0,0,0,0.28)" stroke="rgba(255,255,255,0.10)"/>
    <rect x="1040" y="235" width="410" height="790" rx="26" fill="rgba(0,0,0,0.28)" stroke="rgba(255,255,255,0.10)"/>

    <text x="180" y="285" font-size="16" fill="rgba(255,255,255,0.80)" font-weight="700">This week</text>
    <text x="625" y="285" font-size="16" fill="rgba(255,255,255,0.80)" font-weight="700">In progress</text>
    <text x="1070" y="285" font-size="16" fill="rgba(255,255,255,0.80)" font-weight="700">Done</text>

    <!-- Cards -->
    <rect x="180" y="310" width="350" height="120" rx="18" fill="rgba(255,255,255,0.06)" stroke="rgba(255,255,255,0.09)"/>
    <text x="205" y="345" font-size="14" fill="rgba(255,255,255,0.92)" font-weight="650">Launch landing page</text>
    <text x="205" y="370" font-size="12" fill="rgba(255,255,255,0.55)">Copy polish • screenshots • waitlist</text>
    <rect x="205" y="392" width="110" height="22" rx="11" fill="rgba(246,196,83,0.18)"/>
    <text x="220" y="408" font-size="12" fill="rgba(246,196,83,0.95)">marketing</text>

    <rect x="180" y="450" width="350" height="140" rx="18" fill="rgba(255,255,255,0.06)" stroke="rgba(255,255,255,0.09)"/>
    <text x="205" y="485" font-size="14" fill="rgba(255,255,255,0.92)" font-weight="650">Define MVP features</text>
    <text x="205" y="510" font-size="12" fill="rgba(255,255,255,0.55)">Places • Projects • People</text>
    <text x="205" y="532" font-size="12" fill="rgba(255,255,255,0.55)">Offline later • fast capture now</text>
    <rect x="205" y="555" width="90" height="22" rx="11" fill="rgba(34,211,238,0.18)"/>
    <text x="220" y="571" font-size="12" fill="rgba(34,211,238,0.95)">product</text>

    <rect x="625" y="310" width="350" height="140" rx="18" fill="rgba(255,255,255,0.06)" stroke="rgba(255,255,255,0.09)"/>
    <text x="650" y="345" font-size="14" fill="rgba(255,255,255,0.92)" font-weight="650">Design system</text>
    <text x="650" y="370" font-size="12" fill="rgba(255,255,255,0.55)">Typography • tokens • components</text>
    <rect x="650" y="392" width="120" height="22" rx="11" fill="rgba(246,196,83,0.18)"/>
    <text x="665" y="408" font-size="12" fill="rgba(246,196,83,0.95)">branding</text>

    <rect x="625" y="470" width="350" height="120" rx="18" fill="rgba(255,255,255,0.06)" stroke="rgba(255,255,255,0.09)"/>
    <text x="650" y="505" font-size="14" fill="rgba(255,255,255,0.92)" font-weight="650">Carousel screenshots</text>
    <text x="650" y="530" font-size="12" fill="rgba(255,255,255,0.55)">Mock UI screens for conversion</text>

    <rect x="1070" y="310" width="350" height="110" rx="18" fill="rgba(255,255,255,0.06)" stroke="rgba(255,255,255,0.09)"/>
    <text x="1095" y="345" font-size="14" fill="rgba(255,255,255,0.92)" font-weight="650">Repo setup</text>
    <text x="1095" y="370" font-size="12" fill="rgba(255,255,255,0.55)">Next.js + Tailwind</text>
    <rect x="1095" y="392" width="74" height="22" rx="11" fill="rgba(34,211,238,0.18)"/>
    <text x="1110" y="408" font-size="12" fill="rgba(34,211,238,0.95)">done</text>
  </g>
</svg>